<svg id="Layer_1" data-name="Layer 1" xmlns="http://www.w3.org/2000/svg" viewBox="0 0 422 450"><defs><style>.cls-1{fill:#fff;}</style></defs><title>logo</title><path class="cls-1" d="M215.89,165.87l0-.06L302.19,37H121V303H307.82Zm-3.67,5.3L296.57,297H125.15Z"/><path class="cls-1" d="M43.6,345.12a.81.81,0,0,0-.77.81v28.35a.81.81,0,0,0,.77.81H53.75a15,15,0,1,0,0-30Zm19.27,14.95a9.46,9.46,0,0,1-9.64,9.81H48.35V350.3h4.88A9.44,9.44,0,0,1,62.87,360.06Z"/><rect class="cls-1" x="78.29" y="345.12" width="5.61" height="29.98" rx="0.81" ry="0.81"/><path class="cls-1" d="M113.8,350.26a.81.81,0,0,0,.81-.81v-3.51a.81.81,0,0,0-.81-.81H96.36a.81.81,0,0,0-.81.81v28.35a.81.81,0,0,0,.81.81H113.8a.81.81,0,0,0,.81-.81v-3.51a.81.81,0,0,0-.81-.81H101.12v-7.5H111.7a.81.81,0,0,0,.81-.81v-3.55a.84.84,0,0,0-.81-.81H101.12v-7Z"/><path class="cls-1" d="M138,350.17a9.71,9.71,0,0,1,6.47,2.48.73.73,0,0,0,1.11,0l2.66-2.78a.83.83,0,0,0,0-1.2,16.19,16.19,0,0,0-10.45-4,15.4,15.4,0,0,0,0,30.8,21.64,21.64,0,0,0,10.62-2.78.83.83,0,0,0,.34-.69V361a.81.81,0,0,0-.77-.81h-8.22a.79.79,0,0,0-.81.81v3.38a.78.78,0,0,0,.81.77h3.43v3.64a13.42,13.42,0,0,1-5.1,1.07,9.88,9.88,0,0,1,0-19.75Z"/><path class="cls-1" d="M156.67,360.15A15.4,15.4,0,1,0,172,344.69,15.28,15.28,0,0,0,156.67,360.15Zm25.23,0a9.83,9.83,0,1,1-9.85-9.89A9.87,9.87,0,0,1,181.89,360.15Z"/><path class="cls-1" d="M229.9,353c0-4.5-3.94-7.92-9-7.92h-9.81a.81.81,0,0,0-.81.81v28.35a.81.81,0,0,0,.81.81h10.36c5.23,0,9.34-3.47,9.34-8.27,0-3.94-3.3-6.25-5.57-7C227.21,358.91,229.9,356.34,229.9,353Zm-14.13-2.83h4.58a3.5,3.5,0,0,1,3.68,3.64,3.67,3.67,0,0,1-3.68,3.85h-4.58ZM221,370h-5.18v-7.62h4.67c2.23,0,4.37,1.58,4.37,3.73A3.82,3.82,0,0,1,221,370Z"/><path class="cls-1" d="M258.77,350.26a.81.81,0,0,0,.81-.81v-3.51a.81.81,0,0,0-.81-.81H241.34a.81.81,0,0,0-.81.81v28.35a.81.81,0,0,0,.81.81h17.43a.81.81,0,0,0,.81-.81v-3.51a.81.81,0,0,0-.81-.81H246.09v-7.5h10.58a.81.81,0,0,0,.81-.81v-3.55a.84.84,0,0,0-.81-.81H246.09v-7Z"/><path class="cls-1" d="M292,354.32a9.28,9.28,0,0,0-9.34-9.21H270.38a.81.81,0,0,0-.81.81v28.35a.81.81,0,0,0,.81.81h3.94a.84.84,0,0,0,.81-.81V363.36h4.75l5.7,11.35a.73.73,0,0,0,.68.39h4.5a.81.81,0,0,0,.73-1.24L285.62,363C289.35,361.48,292,358.26,292,354.32Zm-9.81,4.46h-7v-8.52h7a4.26,4.26,0,0,1,4.24,4.15A4.36,4.36,0,0,1,282.15,358.78Z"/><path class="cls-1" d="M322.5,345.12a.81.81,0,0,0-.81.81v17.69h0l-17.82-18.93h-1.07a.81.81,0,0,0-.81.77v28.83a.84.84,0,0,0,.81.81h3.9a.81.81,0,0,0,.81-.81V355.87h0l17.9,19.66h1a.81.81,0,0,0,.81-.77V345.93a.84.84,0,0,0-.81-.81Z"/><path class="cls-1" d="M349.48,344.69h-.43a.77.77,0,0,0-.73.47L335,374a.76.76,0,0,0,.73,1.11h3.73a1.29,1.29,0,0,0,1.24-.86l2.1-4.63H355.6l2.1,4.63a1.23,1.23,0,0,0,1.24.86h3.73a.76.76,0,0,0,.73-1.11l-13.19-28.83A.73.73,0,0,0,349.48,344.69Zm-4.58,20.17,4.2-9.42h.13l4.28,9.42Z"/><path class="cls-1" d="M387.64,370H376.72v-24a.84.84,0,0,0-.81-.81H372a.81.81,0,0,0-.81.81v28.35a.81.81,0,0,0,.81.81h15.68a.81.81,0,0,0,.81-.81v-3.51A.81.81,0,0,0,387.64,370Z"/><rect class="cls-1" x="41.62" y="322.78" width="344.57" height="5.84"/><rect class="cls-1" x="41.62" y="390.92" width="344.57" height="5.84"/></svg>